<svg data-v-0dd9719b="" version="1.0" xmlns="http://www.w3.org/2000/svg" xmlns:xlink="http://www.w3.org/1999/xlink" width="100%" height="100%" viewBox="0 0 340.000000 250.000000" preserveAspectRatio="xMidYMid meet" color-interpolation-filters="sRGB" style="margin: auto;"> <rect data-v-0dd9719b="" x="0" y="0" width="100%" height="100%" fill="#FFFFFF" fill-opacity="1" class="background"></rect> <!----> <g data-v-0dd9719b="" fill="#000000" class="mojosvg mojo-g" transform="translate(124.26551932096481,94.54461860656738)"><g><g class="tp-name"><g transform="translate(0, 0)"><g data-gra="path-name" fill="#000000" transform="translate(0,3)"><g transform="scale(1)"><path d="M0.53-44.63L5.25-54.91L54.24-54.91L49.51-44.63L30.76-44.63L24.45-30.91L42.53-30.91L28.21 0L13.95 0L25.50-25.20L8.25-25.20L17.33-44.63L0.53-44.63Z" transform="translate(-0.5250992626205331, 54.91038003403289)"></path></g></g></g><g transform="translate(48.7101531480431, 0)"><g data-gra="path-name" fill="#000000" transform="translate(0,3)"><g transform="scale(1)"><path d="M19.65-54.91L31.88-54.91L20.70-30.91L37.58-30.91L28.06-10.28L48.53-10.28L48.53 0L10.28 0L21.75-25.20L5.78-25.20L19.65-54.91Z" transform="translate(-5.7760918888258646, 54.91038003403289)"></path></g></g></g></g></g></g><defs v-gra="od"></defs></svg>
